REM DIRINDEX 1\2\6,1\2\7,1\2\8,1\2\9,1\3\10,1\3\11,1\4\12,1\4\13,1\4\14,1\5\15,1\5\16,1\5\17
REM DIRNAME cjc029,folder01,folder02,folder03,folder04,folder05,folder06,folder07,folder08,folder09,folder10,folder11,folder12,folder13,folder14,folder15,folder16
TITLE ""
FILE "1400_2_sec14_1348_1365.mp3" MP3
  TRACK 01 AUDIO
    TITLE "0:"
    INDEX 01 00:00:00
  TRACK 02 AUDIO
    TITLE "13:cjc029_4318"
    INDEX 01 00:00:17
  TRACK 03 AUDIO
    TITLE "0:"
    INDEX 01 00:01:42
  TRACK 04 AUDIO
    TITLE "14:cjc029_4319"
    INDEX 01 00:01:48
  TRACK 05 AUDIO
    TITLE "0:"
    INDEX 01 00:03:45
  TRACK 06 AUDIO
    TITLE "13:cjc029_4320"
    INDEX 01 00:04:27
  TRACK 07 AUDIO
    TITLE "0:"
    INDEX 01 00:05:42
  TRACK 08 AUDIO
    TITLE "14:cjc029_4321"
    INDEX 01 00:05:46
  TRACK 09 AUDIO
    TITLE "0:"
    INDEX 01 00:10:12
  TRACK 10 AUDIO
    TITLE "13:cjc029_4322"
    INDEX 01 00:10:72
  TRACK 11 AUDIO
    TITLE "0:"
    INDEX 01 00:12:18
  TRACK 12 AUDIO
    TITLE "14:cjc029_4323"
    INDEX 01 00:12:22
  TRACK 13 AUDIO
    TITLE "0:"
    INDEX 01 00:13:37
  TRACK 14 AUDIO
    TITLE "13:cjc029_4324"
    INDEX 01 00:14:15
  TRACK 15 AUDIO
    TITLE "0:"
    INDEX 01 00:15:09
  TRACK 16 AUDIO
    TITLE "14:cjc029_4325"
    INDEX 01 00:15:23
  TRACK 17 AUDIO
    TITLE "0:"
    INDEX 01 00:18:60
  TRACK 18 AUDIO
    TITLE "13:cjc029_4326"
    INDEX 01 00:19:44
  TRACK 19 AUDIO
    TITLE "0:"
    INDEX 01 00:20:69
  TRACK 20 AUDIO
    TITLE "14:cjc029_4327"
    INDEX 01 00:21:02
  TRACK 21 AUDIO
    TITLE "0:"
    INDEX 01 00:23:48
  TRACK 22 AUDIO
    TITLE "13:cjc029_4328"
    INDEX 01 00:24:29
  TRACK 23 AUDIO
    TITLE "0:"
    INDEX 01 00:25:66
  TRACK 24 AUDIO
    TITLE "14:cjc029_4329"
    INDEX 01 00:25:72
  TRACK 25 AUDIO
    TITLE "0:"
    INDEX 01 00:28:15
  TRACK 26 AUDIO
    TITLE "13:cjc029_4330"
    INDEX 01 00:28:70
  TRACK 27 AUDIO
    TITLE "0:"
    INDEX 01 00:30:24
  TRACK 28 AUDIO
    TITLE "14:cjc029_4331"
    INDEX 01 00:30:26
  TRACK 29 AUDIO
    TITLE "0:"
    INDEX 01 00:32:48
  TRACK 30 AUDIO
    TITLE "13:cjc029_4332"
    INDEX 01 00:33:28
  TRACK 31 AUDIO
    TITLE "0:"
    INDEX 01 00:34:42
  TRACK 32 AUDIO
    TITLE "14:cjc029_4333"
    INDEX 01 00:34:47
  TRACK 33 AUDIO
    TITLE "0:"
    INDEX 01 00:36:33
  TRACK 34 AUDIO
    TITLE "13:cjc029_4334"
    INDEX 01 00:37:18
  TRACK 35 AUDIO
    TITLE "0:"
    INDEX 01 00:38:51
  TRACK 36 AUDIO
    TITLE "14:cjc029_4335"
    INDEX 01 00:38:55
  TRACK 37 AUDIO
    TITLE "0:"
    INDEX 01 00:39:64
  TRACK 38 AUDIO
    TITLE "13:cjc029_4336"
    INDEX 01 00:40:46
  TRACK 39 AUDIO
    TITLE "0:"
    INDEX 01 00:41:69
  TRACK 40 AUDIO
    TITLE "14:cjc029_4337"
    INDEX 01 00:41:73
  TRACK 41 AUDIO
    TITLE "0:"
    INDEX 01 00:44:42
  TRACK 42 AUDIO
    TITLE "13:cjc029_4338"
    INDEX 01 00:45:24
  TRACK 43 AUDIO
    TITLE "0:"
    INDEX 01 00:46:33
  TRACK 44 AUDIO
    TITLE "14:cjc029_4339"
    INDEX 01 00:46:37
  TRACK 45 AUDIO
    TITLE "0:"
    INDEX 01 00:48:42
  TRACK 46 AUDIO
    TITLE "13:cjc029_4340"
    INDEX 01 00:49:23
  TRACK 47 AUDIO
    TITLE "0:"
    INDEX 01 00:50:66
  TRACK 48 AUDIO
    TITLE "14:cjc029_4341"
    INDEX 01 00:50:72
  TRACK 49 AUDIO
    TITLE "0:"
    INDEX 01 00:52:04
  TRACK 50 AUDIO
    TITLE "13:cjc029_4342"
    INDEX 01 00:52:61
  TRACK 51 AUDIO
    TITLE "0:"
    INDEX 01 00:54:01
  TRACK 52 AUDIO
    TITLE "14:cjc029_4343"
    INDEX 01 00:54:05
  TRACK 53 AUDIO
    TITLE "0:"
    INDEX 01 00:55:18
  TRACK 54 AUDIO
    TITLE "13:cjc029_4344"
    INDEX 01 00:55:71
  TRACK 55 AUDIO
    TITLE "0:"
    INDEX 01 00:57:27
  TRACK 56 AUDIO
    TITLE "14:cjc029_4345"
    INDEX 01 00:57:31
  TRACK 57 AUDIO
    TITLE "0:"
    INDEX 01 00:59:45
  TRACK 58 AUDIO
    TITLE "13:cjc029_4346"
    INDEX 01 01:00:25
  TRACK 59 AUDIO
    TITLE "0:"
    INDEX 01 01:01:54
  TRACK 60 AUDIO
    TITLE "14:cjc029_4347"
    INDEX 01 01:01:58
  TRACK 61 AUDIO
    TITLE "0:"
    INDEX 01 01:06:36
  TRACK 62 AUDIO
    TITLE "13:cjc029_4348"
    INDEX 01 01:07:15
  TRACK 63 AUDIO
    TITLE "0:"
    INDEX 01 01:08:21
  TRACK 64 AUDIO
    TITLE "14:cjc029_4349"
    INDEX 01 01:08:25
  TRACK 65 AUDIO
    TITLE "0:"
    INDEX 01 01:11:07
  TRACK 66 AUDIO
    TITLE "13:cjc029_4350"
    INDEX 01 01:11:62
  TRACK 67 AUDIO
    TITLE "0:"
    INDEX 01 01:13:18
  TRACK 68 AUDIO
    TITLE "14:cjc029_4351"
    INDEX 01 01:13:22
  TRACK 69 AUDIO
    TITLE "0:"
    INDEX 01 01:14:39
  TRACK 70 AUDIO
    TITLE "13:cjc029_4352"
    INDEX 01 01:15:21
  TRACK 71 AUDIO
    TITLE "0:"
    INDEX 01 01:16:54
  TRACK 72 AUDIO
    TITLE "14:cjc029_4353"
    INDEX 01 01:16:58
  TRACK 73 AUDIO
    TITLE "0:"
    INDEX 01 01:18:15
